<?xml version="1.0" encoding="UTF-8" standalone="no"?>
<!-- Created with Inkscape (http://www.inkscape.org/) -->

<svg
   width="12.7mm"
   height="12.7mm"
   viewBox="0 0 12.7 12.7"
   version="1.1"
   id="svg5"
   xmlns="http://www.w3.org/2000/svg"
   xmlns:svg="http://www.w3.org/2000/svg">
  <defs
     id="defs2" />
  <g
     id="layer1"
     transform="translate(-79.675319,-44.557488)">
    <g
       id="_40-Web_Development"
       data-name="40-Web Development"
       transform="matrix(0.26458333,0,0,0.26458333,79.675319,44.557488)"
       style="fill:#ab0533;fill-opacity:1">
      <path
         d="m 47,24 a 1,1 0 0 0 1,-1 V 5 A 5.006,5.006 0 0 0 43,0 H 5 A 5.006,5.006 0 0 0 0,5 v 28 a 5.006,5.006 0 0 0 5,5 h 11 v 4.465 l -2.555,1.7 A 1,1 0 0 0 13,45 v 1 a 2,2 0 0 0 2,2 h 18 a 2,2 0 0 0 2,-2 V 45 A 1,1 0 0 0 34.555,44.168 L 32,42.465 V 41 a 1,1 0 0 0 -2,0 v 2 a 1,1 0 0 0 0.445,0.832 L 33,45.535 V 46 H 15 v -0.465 l 2.555,-1.7 A 1,1 0 0 0 18,43 v -5 h 25 a 5.006,5.006 0 0 0 5,-5 V 28 A 1,1 0 0 0 47,27 H 6 a 1,1 0 0 0 0,2 h 40 v 4 a 3,3 0 0 1 -3,3 H 5 A 3,3 0 0 1 2,33 V 5 A 3,3 0 0 1 5,2 h 38 a 3,3 0 0 1 3,3 v 18 a 1,1 0 0 0 1,1 z"
         id="path196"
         style="fill:#ab0533;fill-opacity:1" />
      <path
         d="m 19.707,7.293 a 1,1 0 0 0 -1.414,0 l -6,6 a 1,1 0 0 0 0,1.414 l 6,6 a 1,1 0 0 0 1.414,-1.414 L 14.414,14 19.707,8.707 a 1,1 0 0 0 0,-1.414 z"
         id="path198"
         style="fill:#ab0533;fill-opacity:1" />
      <path
         d="m 28.293,20.707 a 1,1 0 0 0 1.414,0 l 6,-6 a 1,1 0 0 0 0,-1.414 l -6,-6 A 1,1 0 1 0 28.293,8.707 L 33.586,14 28.293,19.293 a 1,1 0 0 0 0,1.414 z"
         id="path200"
         style="fill:#ab0533;fill-opacity:1" />
    </g>
  </g>
</svg>
