<?xml version="1.0" encoding="UTF-8" standalone="no"?>
<!-- Generator: Adobe Illustrator 15.0.0, SVG Export Plug-In . SVG Version: 6.00 Build 0)  -->

<svg
   xmlns:dc="http://purl.org/dc/elements/1.1/"
   xmlns:cc="http://creativecommons.org/ns#"
   xmlns:rdf="http://www.w3.org/1999/02/22-rdf-syntax-ns#"
   xmlns:svg="http://www.w3.org/2000/svg"
   xmlns="http://www.w3.org/2000/svg"
   xmlns:sodipodi="http://sodipodi.sourceforge.net/DTD/sodipodi-0.dtd"
   xmlns:inkscape="http://www.inkscape.org/namespaces/inkscape"
   version="1.1"
   id="Capa_1"
   x="0px"
   y="0px"
   width="266.71799"
   height="328.229"
   viewBox="0 0 266.71799 328.229"
   enable-background="new 0 0 800 600"
   xml:space="preserve"
   sodipodi:docname="logo 1_favicon.svg"
   inkscape:version="0.92.5 (2060ec1f9f, 2020-04-08)"><metadata
   id="metadata3835"><rdf:RDF><cc:Work
       rdf:about=""><dc:format>image/svg+xml</dc:format><dc:type
         rdf:resource="http://purl.org/dc/dcmitype/StillImage" /><dc:title></dc:title></cc:Work></rdf:RDF></metadata><defs
   id="defs3833">
	
	
	
	
	
	
	
	
	
	
	
	
	
	
</defs><sodipodi:namedview
   pagecolor="#ffffff"
   bordercolor="#666666"
   borderopacity="1"
   objecttolerance="10"
   gridtolerance="10"
   guidetolerance="10"
   inkscape:pageopacity="0"
   inkscape:pageshadow="2"
   inkscape:window-width="1366"
   inkscape:window-height="707"
   id="namedview3831"
   showgrid="false"
   fit-margin-top="0"
   fit-margin-left="0"
   fit-margin-right="0"
   fit-margin-bottom="0"
   inkscape:zoom="0.88"
   inkscape:cx="105.152"
   inkscape:cy="72.877"
   inkscape:window-x="0"
   inkscape:window-y="30"
   inkscape:window-maximized="1"
   inkscape:current-layer="Capa_1" />
<g
   id="g3796"
   transform="translate(-294.848,-44.648)">
		<path
   style="fill:#031e4e"
   inkscape:connector-curvature="0"
   id="path3794"
   d="m 374.446,52.543 c 2.96,-4.642 7.876,-6.964 14.746,-6.964 6.867,0 11.783,2.322 14.742,6.964 2.961,4.642 4.441,11.062 4.441,19.256 0,8.242 -1.48,14.71 -4.441,19.398 -2.959,4.69 -7.875,7.035 -14.742,7.035 -6.87,0 -11.786,-2.345 -14.746,-7.035 -2.961,-4.688 -4.441,-11.157 -4.441,-19.398 0,-8.194 1.48,-14.614 4.441,-19.256 z m 23.448,10.409 c -0.451,-2.392 -1.35,-4.345 -2.7,-5.861 -1.349,-1.517 -3.352,-2.274 -6.003,-2.274 -2.655,0 -4.655,0.757 -6.004,2.274 -1.352,1.517 -2.25,3.47 -2.701,5.861 -0.451,2.393 -0.674,5.343 -0.674,8.847 0,3.6 0.212,6.621 0.639,9.059 0.426,2.441 1.325,4.406 2.701,5.9 1.374,1.491 3.385,2.236 6.04,2.236 2.651,0 4.665,-0.745 6.04,-2.236 1.374,-1.494 2.273,-3.458 2.701,-5.9 0.424,-2.438 0.639,-5.458 0.639,-9.059 -10e-4,-3.504 -0.227,-6.454 -0.678,-8.847 z" />
	</g><g
   id="g3802"
   transform="translate(-294.848,-44.648)">
		<path
   style="fill:#031e4e"
   inkscape:connector-curvature="0"
   id="path3798"
   d="m 371.066,239.524 c 0,-37.029 10.792,-70.534 28.21,-94.686 8.28,-11.518 18.09,-20.899 28.937,-27.526 11.667,-7.149 24.555,-11.114 38.104,-11.114 52.604,0 95.249,59.701 95.249,133.339 0,73.652 -42.645,133.34 -95.249,133.34 -13.549,0 -26.437,-3.952 -38.104,-11.102 11.048,-6.748 20.994,-16.331 29.366,-28.104 2.837,0.738 5.753,1.115 8.725,1.115 31.503,0 57.053,-42.605 57.16,-95.25 v -0.335 c 0,-35.309 -11.452,-66.152 -28.479,-82.698 -0.027,-0.041 -0.054,-0.066 -0.081,-0.093 -4.879,-5.375 -11.263,-9.369 -18.479,-11.304 -0.215,-0.081 -0.444,-0.134 -0.673,-0.188 -3.077,-0.861 -6.236,-1.303 -9.447,-1.303 -3.118,0 -6.169,0.416 -9.14,1.223 -0.122,0.027 -0.242,0.054 -0.365,0.095 -0.2,0.054 -0.415,0.106 -0.619,0.174 -7.216,1.935 -13.585,5.928 -18.463,11.304 -0.027,0.027 -0.055,0.052 -0.068,0.081 -3.548,3.911 -6.303,8.562 -7.996,13.696 -1.289,3.829 -1.977,7.941 -1.977,12.201 0,13.643 7.057,25.618 17.728,32.487 6.021,3.896 13.212,6.154 20.913,6.154 6.357,0 12.352,-1.532 17.646,-4.274 0.928,7.393 1.396,15.013 1.396,22.781 h -38.087 l -38.116,-0.013 z" />
		<path
   style="fill:#ab0533"
   inkscape:connector-curvature="0"
   id="path3800"
   d="m 485.349,239.55 c 0,37.029 -10.794,70.535 -28.21,94.686 -8.28,11.52 -18.092,20.899 -28.938,27.526 -11.665,7.149 -24.554,11.115 -38.103,11.115 -52.604,0 -95.25,-59.701 -95.25,-133.34 0,-73.65 42.646,-133.339 95.25,-133.339 13.549,0 26.438,3.952 38.103,11.102 -11.046,6.748 -20.994,16.33 -29.366,28.103 -2.837,-0.738 -5.753,-1.115 -8.723,-1.115 -31.503,0 -57.053,42.605 -57.161,95.25 v 0.336 c 0,35.307 11.452,66.152 28.479,82.697 0.027,0.041 0.054,0.067 0.082,0.093 4.878,5.377 11.263,9.369 18.48,11.304 0.215,0.082 0.443,0.136 0.671,0.189 3.077,0.859 6.237,1.303 9.449,1.303 3.118,0 6.168,-0.415 9.14,-1.224 0.12,-0.025 0.24,-0.054 0.362,-0.093 0.202,-0.055 0.417,-0.107 0.619,-0.176 7.217,-1.935 13.586,-5.927 18.465,-11.304 0.028,-0.025 0.054,-0.052 0.068,-0.079 3.548,-3.912 6.304,-8.562 7.997,-13.696 1.289,-3.831 1.977,-7.942 1.977,-12.203 0,-13.643 -7.057,-25.618 -17.729,-32.486 -6.021,-3.897 -13.213,-6.154 -20.914,-6.154 -6.358,0 -12.351,1.532 -17.646,4.273 -0.927,-7.391 -1.398,-15.011 -1.398,-22.781 h 38.089 l 38.115,0.013 z" />
	</g><path
   style="fill:#031e4e"
   inkscape:connector-curvature="0"
   id="path3804"
   d="M 130.773,47.43 V 15.171 c -6.003,4.608 -10.043,6.912 -12.124,6.912 -0.992,0 -1.872,-0.393 -2.64,-1.186 -0.768,-0.792 -1.152,-1.706 -1.152,-2.748 0,-1.206 0.377,-2.091 1.135,-2.659 0.755,-0.567 2.091,-1.298 4.005,-2.198 2.859,-1.347 5.146,-2.765 6.859,-4.253 1.713,-1.49 3.231,-3.155 4.554,-4.998 1.325,-1.843 2.188,-2.977 2.589,-3.404 C 134.4,0.213 135.156,0 136.268,0 c 1.252,0 2.257,0.484 3.014,1.453 0.756,0.971 1.133,2.304 1.133,4.006 v 40.586 c 0,4.751 -1.618,7.125 -4.855,7.125 -1.441,0 -2.599,-0.485 -3.474,-1.453 -0.876,-0.969 -1.313,-2.396 -1.313,-4.287 z" /><path
   style="fill:#031e4e"
   inkscape:connector-curvature="0"
   id="path3806"
   d="m 186.24,37.585 c 9.667,-9.667 14.64,-22.176 14.854,-34.527 -12.353,0.215 -24.862,5.185 -34.53,14.855 -9.669,9.668 -14.644,22.175 -14.855,34.528 12.349,-0.211 24.86,-5.181 34.531,-14.856 z" />
</svg>